<svg width="161" height="48" viewBox="0 0 161 48" fill="none" xmlns="http://www.w3.org/2000/svg">
<path d="M52.4738 10.4788V1.83789H51.8803V5.81196H46.5431V1.83789H45.9501V10.4788H46.5431V6.37434H51.8803V10.4788H52.4738ZM57.8307 4.21837C56.0511 4.21837 54.6162 5.64358 54.6162 7.405C54.6162 9.14827 56.0511 10.5542 57.8307 10.5542C59.6283 10.5542 61.0828 9.14827 61.0828 7.405C61.0828 5.64358 59.6288 4.21837 57.8307 4.21837ZM57.8498 4.76259C59.3037 4.76259 60.5083 5.90606 60.5083 7.40555C60.5083 8.88634 59.3031 10.0304 57.8498 10.0304C56.3953 10.0304 55.1907 8.88689 55.1907 7.40555C55.1907 5.90606 56.3959 4.76259 57.8498 4.76259ZM63.1297 4.31192V10.4788H66.4581C68.0086 10.4788 68.6775 9.86032 68.6775 8.77298C68.6775 8.02351 68.2754 7.44242 67.4145 7.25478C68.1041 7.01046 68.3714 6.46679 68.3714 5.86754C68.3714 5.02397 67.8357 4.31137 66.4199 4.31137L63.1297 4.31192ZM63.7036 4.80001H66.4205C67.4729 4.80001 67.8166 5.30571 67.8166 5.92422C67.8166 6.54327 67.4729 7.04842 66.4205 7.04842H63.7036V4.80001ZM63.7036 9.99238V7.48039L66.4767 7.4991C67.6818 7.4991 68.103 7.98719 68.103 8.73611C68.103 9.50429 67.6818 9.99238 66.457 9.99238H63.7036ZM73.6131 4.21837C71.8341 4.21837 70.3987 5.64358 70.3987 7.405C70.3987 9.14827 71.8341 10.5542 73.6131 10.5542C75.4113 10.5542 76.8657 9.14827 76.8657 7.405C76.8657 5.64358 75.4118 4.21837 73.6131 4.21837ZM73.6328 4.76259C75.0867 4.76259 76.2907 5.90606 76.2907 7.40555C76.2907 8.88634 75.0856 10.0304 73.6328 10.0304C72.18 10.0304 70.9737 8.88689 70.9737 7.40555C70.9732 5.90606 72.1789 4.76259 73.6328 4.76259ZM81.7626 4.21837C79.9651 4.21837 78.5286 5.64358 78.5286 7.405C78.5286 9.14827 79.9651 10.5542 81.7626 10.5542C82.7572 10.5542 83.6568 10.1233 84.2504 9.42946L83.8865 9.05417C83.3513 9.67268 82.605 10.0293 81.7638 10.0293C80.2902 10.0293 79.1053 8.88579 79.1053 7.40445C79.1053 5.90496 80.2902 4.76149 81.7638 4.76149C82.605 4.76149 83.3513 5.11697 83.8865 5.73547L84.2504 5.38C83.6568 4.66794 82.7583 4.21837 81.7626 4.21837ZM91.8053 10.4788V4.31192H91.4812L86.7938 9.48558V4.31192H86.2389V10.4788H86.545L91.2134 5.30571V10.4788H91.8053ZM99.2292 1.83789C99.2292 2.34414 98.8839 2.49327 97.6029 2.49327C95.2685 2.49327 93.8522 3.52503 93.8522 5.66119V7.36758C93.8522 9.18623 95.2297 10.5735 97.0857 10.5735C98.9608 10.5735 100.32 9.14827 100.32 7.405C100.32 5.68045 98.9423 4.29376 97.1447 4.29376C95.9384 4.29376 94.8866 5.00526 94.4278 6.01776V5.53077C94.4278 3.75009 95.6138 2.98136 97.5647 2.98136H97.7377C99.1916 2.98136 99.8043 2.68146 99.8043 1.83789H99.2292ZM97.0857 4.81817C98.5593 4.81817 99.7442 5.96164 99.7442 7.42316C99.7442 8.88579 98.5975 10.048 97.0857 10.048C95.5549 10.048 94.4278 8.88634 94.4278 7.42316C94.4272 5.96164 95.6318 4.81817 97.0857 4.81817ZM107.932 10.4788V4.31192H107.627L102.94 9.48558V4.31192H102.366V10.4788H102.692L107.36 5.30571V10.4788H107.932ZM113.672 4.21837C112.447 4.21837 111.377 4.94913 110.899 5.96164L110.879 4.31192H110.439V12.7465H110.994V8.90449C111.473 9.87958 112.486 10.5542 113.672 10.5542C115.47 10.5542 116.867 9.14827 116.867 7.405C116.867 5.64358 115.47 4.21837 113.672 4.21837ZM113.634 4.76259C115.107 4.76259 116.293 5.90606 116.293 7.40555C116.293 8.88634 115.107 10.0304 113.634 10.0304C112.179 10.0304 110.993 8.88689 110.993 7.40555C110.993 5.90606 112.18 4.76259 113.634 4.76259ZM121.764 4.21837C119.986 4.21837 118.55 5.64358 118.55 7.405C118.55 9.14827 119.986 10.5542 121.764 10.5542C122.759 10.5542 123.658 10.1233 124.251 9.42946L123.888 9.05417C123.353 9.67268 122.607 10.0293 121.765 10.0293C120.311 10.0293 119.107 8.88579 119.107 7.40445C119.107 5.90496 120.312 4.76149 121.765 4.76149C122.607 4.76149 123.353 5.11697 123.888 5.73547L124.251 5.38C123.658 4.66794 122.759 4.21837 121.764 4.21837ZM131.061 10.4788H131.711L130.527 8.69869C129.99 7.89199 129.684 7.42371 129.111 7.25533C129.569 7.06768 129.875 6.61811 130.354 5.8868L131.425 4.31247H130.756L129.896 5.62487C129.206 6.65553 128.977 7.03082 127.925 7.03082H126.872V4.31192H126.298V10.4788H126.871V7.55468H128.096C129.149 7.55468 129.396 7.91125 130.067 8.96172L131.061 10.4788ZM138.963 10.4788V4.31192H138.657L133.969 9.48558V4.31192H133.396V10.4788H133.701L138.389 5.30571V10.4788H138.963ZM144.166 3.50577C145.121 3.50577 145.887 2.86855 145.887 2.02553H145.447C145.447 2.62478 144.893 3.0749 144.167 3.0749C143.438 3.0749 142.904 2.62478 142.904 2.02553H142.444C142.443 2.86855 143.209 3.50577 144.166 3.50577ZM146.96 10.4788V4.31192H146.652L141.965 9.48558V4.31192H141.392V10.4788H141.717L146.385 5.30571V10.4788H146.96ZM46.3909 16.1219H50.733V15.5782H45.8164V21.7638H46.3903V16.1219H46.3909ZM54.9801 15.5034C53.1814 15.5034 51.7477 16.9088 51.7477 18.6707C51.7477 20.414 53.182 21.8387 54.9801 21.8387C56.7586 21.8387 58.2131 20.414 58.2131 18.6707C58.2131 16.9088 56.7592 15.5034 54.9801 15.5034ZM54.9801 16.0278C56.4341 16.0278 57.6398 17.1712 57.6398 18.6707C57.6398 20.1713 56.4346 21.2955 54.9801 21.2955C53.5262 21.2955 52.3402 20.1713 52.3402 18.6707C52.3402 17.1712 53.5262 16.0278 54.9801 16.0278ZM63.1106 15.5034C61.3321 15.5034 59.8961 16.9088 59.8961 18.6707C59.8961 20.414 61.3315 21.8387 63.1106 21.8387C64.1051 21.8387 65.0048 21.3891 65.5978 20.6957L65.2535 20.321C64.6993 20.9395 63.9529 21.2955 63.1112 21.2955C61.6572 21.2955 60.4527 20.1713 60.4527 18.6707C60.4527 17.1712 61.6578 16.047 63.1112 16.047C63.9529 16.047 64.6993 16.3838 65.2535 17.0023L65.5978 16.6463C65.0042 15.9342 64.1051 15.5034 63.1106 15.5034ZM73.4795 15.5782H72.8853V18.4281C72.8853 20.1895 71.8908 21.2581 70.3796 21.2581C69.0402 21.2581 68.1602 20.4899 68.1602 18.8595V15.5788H67.5869V18.8969C67.5869 20.7519 68.6572 21.8018 70.3217 21.8018C71.241 21.8018 72.3883 21.3522 72.8848 20.1713V21.0705C72.8848 22.6833 72.0806 23.5825 70.456 23.6012C69.5176 23.6012 68.7909 23.3013 68.1406 22.8143L67.7963 23.1698C68.486 23.752 69.3845 24.1261 70.456 24.1069C72.4265 24.1069 73.4789 22.8886 73.4789 20.9956V15.5782H73.4795ZM82.3175 23.2452V21.2207H81.5133L78.8734 15.5782H78.5673L75.9083 21.2207H75.1052V23.2452H75.6786V21.7644H81.7621V23.2452H82.3175ZM78.7021 16.5153L80.9203 21.2207H76.5018L78.7021 16.5153ZM89.6438 21.7638V15.5782H89.2052L89.1855 17.2274C88.7065 16.1967 87.6367 15.5034 86.3917 15.5034C84.6121 15.5034 83.2171 16.9088 83.2171 18.6707C83.2171 20.414 84.6121 21.8387 86.3917 21.8387C87.6367 21.8387 88.7065 21.1266 89.1855 20.1141L89.2052 21.7638H89.6438ZM86.4501 21.2955C84.9765 21.2955 83.7905 20.1713 83.7905 18.6707C83.7905 17.1712 84.9765 16.0278 86.4501 16.0278C87.8843 16.0278 89.108 17.1712 89.108 18.6707C89.1086 20.1713 87.8843 21.2955 86.4501 21.2955ZM95.383 15.5034C94.1588 15.5034 93.0879 16.2149 92.61 17.2274L92.5724 15.5782H92.1321V24.032H92.706V20.1708C93.1643 21.1448 94.1981 21.8381 95.3842 21.8381C97.1829 21.8381 98.5784 20.4135 98.5784 18.6702C98.5784 16.9088 97.1818 15.5034 95.383 15.5034ZM95.3448 16.047C96.8184 16.047 98.0045 17.1712 98.0045 18.6707C98.0045 20.1713 96.8184 21.2955 95.3448 21.2955C93.8909 21.2955 92.6864 20.1713 92.6864 18.6707C92.6858 17.1712 93.8909 16.047 95.3448 16.047ZM103.476 15.5034C101.696 15.5034 100.242 16.9088 100.242 18.6707C100.242 20.414 101.696 21.8387 103.476 21.8387C104.47 21.8387 105.368 21.3891 105.962 20.6957L105.599 20.321C105.063 20.9395 104.317 21.2955 103.476 21.2955C102.022 21.2955 100.817 20.1713 100.817 18.6707C100.817 17.1712 102.022 16.047 103.476 16.047C104.317 16.047 105.063 16.3838 105.599 17.0023L105.962 16.6463C105.369 15.9342 104.47 15.5034 103.476 15.5034ZM110.267 16.1219H112.755V15.5782H107.225V16.1219H109.692V21.7638H110.267V16.1219ZM114.456 15.5782V21.7638H117.786C119.354 21.7638 120.004 21.1266 120.004 20.0393C120.004 19.2898 119.622 18.7269 118.761 18.5211C119.43 18.2955 119.717 17.7529 119.717 17.1338C119.717 16.2903 119.163 15.5782 117.765 15.5782H114.456ZM115.049 16.085H117.748C118.799 16.085 119.143 16.5902 119.143 17.1905C119.143 17.809 118.799 18.3153 117.748 18.3153H115.049V16.085ZM115.049 21.2576V18.7643H117.804C119.009 18.7643 119.43 19.2711 119.43 20.0206C119.43 20.7887 119.008 21.2576 117.804 21.2576H115.049ZM124.94 15.5034C123.046 15.5034 121.725 16.9088 121.725 18.6707C121.725 20.5642 123.084 21.821 125.073 21.8387C126.144 21.8387 127.025 21.4452 127.713 20.8828L127.387 20.5461C126.756 21.0331 125.992 21.3335 125.073 21.3335C123.447 21.3148 122.318 20.359 122.318 18.7648H127.924C128.019 18.4286 127.962 17.7903 127.79 17.3781C127.35 16.2721 126.336 15.5034 124.94 15.5034ZM124.959 16.0096C126.107 16.0096 126.929 16.6276 127.292 17.5273C127.387 17.7903 127.445 18.1089 127.425 18.3527H122.337C122.433 17.059 123.467 16.0096 124.959 16.0096ZM135.596 21.7638V15.5782H135.022V18.3901H130.565V15.5782H130.011V21.7638H130.565V18.9145H135.022V21.7638H135.596ZM143.592 21.7638V15.5782H143.037V18.3901H138.58V15.5782H138.025V21.7638H138.58V18.9145H143.037V21.7638H143.592ZM146.595 17.6968V15.5782H146.021V21.7638H149.122C150.977 21.7638 151.569 20.7513 151.569 19.7201C151.569 18.7082 150.976 17.6962 149.122 17.6962L146.595 17.6968ZM153.004 21.7638V15.5782H152.43V21.7638H153.004ZM146.614 21.2394V18.2212H149.178C150.555 18.2212 150.994 18.9151 150.994 19.7207C150.994 20.5274 150.555 21.24 149.178 21.24L146.614 21.2394ZM158.207 14.7726C159.163 14.7726 159.909 14.1343 159.909 13.2907H159.469C159.469 13.8916 158.915 14.3406 158.207 14.3406C157.481 14.3406 156.926 13.8916 156.926 13.2907H156.485C156.485 14.1343 157.251 14.7726 158.207 14.7726ZM161 21.7638V15.5782H160.676L155.988 20.7513V15.5782H155.434V21.7638H155.739L160.408 16.5902V21.7638H161ZM51.709 26.8626H51.1165V29.712C51.1165 31.4739 50.1214 32.5233 48.6102 32.5233C47.2703 32.5233 46.3909 31.7749 46.3909 30.1434V26.8626H45.817V30.1621C45.817 32.0171 46.8879 33.067 48.5529 33.067C49.4717 33.067 50.619 32.6361 51.1165 31.4354V32.3555C51.1165 33.9485 50.3118 34.8477 48.6866 34.8664C47.7684 34.8664 47.0227 34.5665 46.3718 34.0795L46.027 34.4349C46.7351 35.0155 47.6151 35.3902 48.686 35.3902C50.6757 35.3715 51.7084 34.1532 51.7084 32.2603L51.709 26.8626ZM59.6485 33.0296V26.8626H59.0942V29.6558H54.6365V26.8626H54.0625V33.0296H54.6359V30.1802H59.0937V33.0296H59.6485ZM67.6442 33.0296V26.8626H67.3387L62.6512 32.0171V26.8626H62.0779V33.0296H62.403L67.0714 27.8564V33.0296H67.6442ZM70.0741 26.8626V33.0296H73.4031C74.9721 33.0296 75.6219 32.3934 75.6219 31.3055C75.6219 30.5555 75.2389 29.9932 74.3785 29.7868C75.0479 29.5612 75.3355 29.0186 75.3355 28.3996C75.3355 27.5565 74.7992 26.8626 73.3823 26.8626H70.0741ZM70.6671 27.3507H73.3655C74.4358 27.3507 74.7604 27.8564 74.7604 28.4568C74.7604 29.0758 74.4358 29.5997 73.3655 29.5997H70.6671V27.3507ZM70.6671 32.5233V30.0311H73.4407C74.6268 30.0493 75.0474 30.5374 75.0474 31.2863C75.0474 32.0545 74.6268 32.5233 73.4211 32.5233H70.6671ZM80.5581 26.7691C78.6639 26.7691 77.3431 28.1943 77.3431 29.9365C77.3431 31.8498 78.7021 33.0873 80.6912 33.1049C81.7627 33.1049 82.6438 32.7109 83.3311 32.1673L83.006 31.8118C82.3742 32.2988 81.6099 32.5987 80.6912 32.5987C79.0649 32.5805 77.9367 31.6247 77.9367 30.0311H83.5423C83.6372 29.712 83.5799 29.0758 83.4277 28.6439C82.9678 27.5378 81.9542 26.7691 80.5581 26.7691ZM80.5766 27.2935C81.7245 27.2935 82.5472 27.9126 82.9111 28.8123C83.006 29.0549 83.0633 29.3934 83.043 29.6366H77.9743C78.0512 28.3247 79.0845 27.2935 80.5766 27.2935ZM89.3579 26.7691C88.1135 26.7691 87.0437 27.4817 86.5647 28.4942L86.545 26.8626H86.1047V35.2972H86.6792V31.4354C87.1375 32.4309 88.1517 33.1038 89.3579 33.1038C91.1359 33.1038 92.533 31.6984 92.533 29.9348C92.533 28.1943 91.1359 26.7691 89.3579 26.7691ZM89.3192 27.3122C90.7731 27.3122 91.9771 28.4375 91.9771 29.937C91.9771 31.4371 90.772 32.5618 89.3192 32.5618C87.8653 32.5618 86.6596 31.4371 86.6596 29.937C86.6596 28.4375 87.8653 27.3122 89.3192 27.3122ZM97.4496 26.7691C95.652 26.7691 94.2161 28.1943 94.2161 29.9365C94.2161 31.699 95.652 33.1049 97.4496 33.1049C98.4447 33.1049 99.3241 32.6559 99.9177 31.962L99.574 31.5873C99.0377 32.2041 98.292 32.5613 97.4507 32.5613C95.9772 32.5613 94.7923 31.4371 94.7923 29.9365C94.7923 28.437 95.9772 27.3117 97.4507 27.3117C98.292 27.3117 99.0377 27.6495 99.574 28.268L99.9177 27.9126C99.3241 27.2187 98.4447 26.7691 97.4496 26.7691ZM107.474 33.0296V26.8626H107.168L102.48 32.0171V26.8626H101.906V33.0296H102.231L106.9 27.8564V33.0296H107.474ZM112.238 27.3882H114.724V26.8626H109.177V27.3882H111.663V33.0296H112.238V27.3882ZM119.258 26.7691C117.364 26.7691 116.044 28.1943 116.044 29.9365C116.044 31.8498 117.402 33.0873 119.393 33.1049C120.462 33.1049 121.343 32.7109 122.032 32.1673L121.707 31.8118C121.076 32.2988 120.31 32.5987 119.393 32.5987C117.766 32.5805 116.637 31.6247 116.637 30.0311H122.242C122.338 29.712 122.28 29.0758 122.109 28.6439C121.669 27.5378 120.655 26.7691 119.258 26.7691ZM119.277 27.2935C120.425 27.2935 121.248 27.9126 121.611 28.8123C121.707 29.0549 121.763 29.3934 121.744 29.6366H116.676C116.752 28.3247 117.786 27.2935 119.277 27.2935ZM126.432 27.3882H128.918V26.8626H123.372V27.3882H125.858V33.0296H126.432V27.3882Z" fill="white"/>
<path d="M14.9597 46.2268V38.4288H13.7349V41.7272H10.0617V38.4288H8.83691V46.2268H10.0617V42.8717H13.7349V46.2268H14.9597ZM18.5948 44.4835H21.6936L22.4202 46.2268H23.7787L20.5266 38.4288H19.7988L16.5097 46.2268H17.8681L18.5948 44.4835ZM20.1442 40.6222L21.2735 43.3395H19.0356L20.1442 40.6222ZM28.2931 38.354C26.0362 38.354 24.238 40.1347 24.238 42.3286C24.238 44.5226 26.0368 46.3214 28.2931 46.3214C29.4601 46.3214 30.531 45.8152 31.2976 45.0277L30.4934 44.2964C29.92 44.8582 29.154 45.1779 28.2937 45.1779C26.7067 45.1779 25.4623 43.9965 25.4623 42.3286C25.4623 40.6789 26.7067 39.4969 28.2937 39.4969C29.1546 39.4969 29.92 39.8161 30.4934 40.3779L31.2981 39.6477C30.5316 38.8603 29.4601 38.354 28.2931 38.354ZM35.9648 39.5718H38.2992V38.4288H32.4067V39.5718H34.7406V46.2268H35.9654L35.9648 39.5718ZM43.4067 38.354C41.1694 38.354 39.3702 40.1347 39.3702 42.3286C39.3702 44.5407 41.1689 46.3214 43.4067 46.3214C45.6648 46.3214 47.481 44.5407 47.481 42.3286C47.481 40.1347 45.6637 38.354 43.4067 38.354ZM43.4067 39.4964C44.9943 39.4964 46.2567 40.6784 46.2567 42.3281C46.2567 43.9954 44.9943 45.1774 43.4067 45.1774C41.8383 45.1774 40.5938 43.9965 40.5938 42.3281C40.5938 40.6789 41.8383 39.4964 43.4067 39.4964ZM54.9033 46.2268V38.4288H52.283C50.1406 38.4288 48.8394 39.6097 48.8394 41.315C48.8394 42.5526 49.5661 43.3956 50.7145 43.7902C50.3118 43.9772 49.9496 44.3718 49.4515 45.1202L48.7248 46.2268H50.1018L50.6757 45.3447C51.3255 44.3701 51.613 44.2018 52.4166 44.1841H53.6796V46.2268H54.9033ZM53.6796 39.5718V43.0588H52.169C50.9638 43.0588 49.9878 42.5333 49.9878 41.315C49.9878 40.1347 50.9627 39.5718 52.169 39.5718H53.6796ZM67.9312 47.6701V45.1026H66.8979V38.4288H65.6737V45.1026H62.6889V38.4288H61.4652V45.1026H58.5001V38.4288H57.2759V46.2268H66.7069V47.6701H67.9312ZM71.222 44.4835H74.3219L75.0491 46.2268H76.3885L73.1358 38.4288H72.4282L69.1374 46.2268H70.4964L71.222 44.4835ZM72.7714 40.6222L73.9001 43.3395H71.642L72.7714 40.6222ZM83.599 46.2268V38.4288H80.9787C78.8554 38.4288 77.5357 39.6097 77.5357 41.315C77.5357 42.5526 78.2619 43.3956 79.4103 43.7902C79.0278 43.9772 78.6443 44.3718 78.1473 45.1202L77.4195 46.2268H78.797L79.3906 45.3447C80.0415 44.3701 80.3094 44.2018 81.1326 44.1841H82.3754V46.2268H83.599ZM82.3743 39.5718V43.0588H80.8642C79.6782 43.0588 78.6825 42.5333 78.6825 41.315C78.6825 40.1347 79.677 39.5718 80.8642 39.5718H82.3743ZM95.8228 46.2268V38.4288H94.5986V41.7272H90.9259V38.4288H89.7011V46.2268H90.9259V42.8717H94.5986V46.2268H95.8228ZM99.4584 44.4835H102.558L103.284 46.2268H104.643L101.391 38.4288H100.664L97.3744 46.2268H98.7317L99.4584 44.4835ZM101.027 40.6222L102.137 43.3395H99.8998L101.027 40.6222ZM107.818 46.2268L112.447 38.4288H111.052L108.793 42.1966L106.516 38.4288H105.121L108.085 43.4336L106.402 46.2268H107.818ZM119.258 46.2268H120.655L118.761 43.3587C118.282 42.6274 118.034 42.3649 117.689 42.2527C117.977 42.1036 118.224 41.8394 118.684 41.1841L120.5 38.4288H119.085L117.553 40.8088C117.095 41.4641 116.903 41.6903 116.233 41.6903H115.296V38.4288H114.071V46.2268H115.296V42.8525H116.31C117 42.8525 117.19 43.077 117.629 43.7527L119.258 46.2268ZM123.754 44.4835H126.854L127.562 46.2268H128.92L125.668 38.4288H124.96L121.67 46.2268H123.028L123.754 44.4835ZM125.303 40.6222L126.433 43.3395H124.175L125.303 40.6222Z" fill="white"/>
<path d="M28.9631 6.03649L33.5736 7.51728L30.8186 11.2289L33.3243 13.0283L36.0232 9.39261L38.6244 12.9166L41.1493 11.1172L38.4138 7.44244L42.8329 6.03594L41.8765 3.15031L37.4569 4.55626V0C36.4242 0 35.3915 0 34.3391 0V4.55571L29.9391 3.14976L28.9631 6.03649Z" fill="#00BDE8"/>
<path d="M7.21227 39.9482L4.82054 40.6966L6.25648 42.6457L4.95588 43.5833L3.54015 41.6904L2.18115 43.5283L0.881107 42.5912L2.29683 40.679L0 39.9482L0.496992 38.4289L2.79326 39.1597V36.7974C3.32788 36.7974 3.88271 36.7974 4.41957 36.7974V39.1597L6.71472 38.4289L7.21227 39.9482Z" fill="white"/>
<path d="M25.8638 33.0296V1.83789H18.1348V18.9894L4.95473 1.83789H0.30603V33.0296H8.03439V15.8781L21.2151 33.0296H25.8638Z" fill="white"/>
</svg>
