<svg width="36" height="36" viewBox="0 0 36 36" fill="none" xmlns="http://www.w3.org/2000/svg">
<path d="M23.5256 0H12.4744C2.3879 0 0 2.3879 0 12.4744V23.5256C0 33.6116 2.3879 36 12.4744 36H23.5256C33.6121 36 36 33.6121 36 23.5256V12.4744C36 2.3879 33.5864 0 23.5256 0ZM29.0641 25.6853H26.4475C25.4566 25.6853 25.1518 24.8979 23.3735 23.0939C21.8234 21.5947 21.1377 21.3916 20.7564 21.3916C20.2229 21.3916 20.0707 21.5443 20.0707 22.2808V24.6435C20.0707 25.2787 19.8677 25.6596 18.1902 25.6596C15.421 25.6596 12.347 23.983 10.1878 20.8577C6.93545 16.2845 6.04629 12.8548 6.04629 12.1435C6.04629 11.7621 6.19892 11.4065 6.93545 11.4065H9.55206C10.2125 11.4065 10.4669 11.7117 10.7208 12.4226C12.0165 16.1571 14.1762 19.4346 15.0653 19.4346C15.3953 19.4346 15.5479 19.2819 15.5479 18.4437V14.5818C15.4462 12.8035 14.5066 12.6508 14.5066 12.0156C14.5066 11.7108 14.7605 11.4055 15.1671 11.4055H19.2824C19.8416 11.4055 20.0446 11.7108 20.0446 12.3712V17.5793C20.0446 18.138 20.2985 18.3415 20.4511 18.3415C20.7816 18.3415 21.0607 18.138 21.6708 17.5284C23.5508 15.4196 24.897 12.1677 24.897 12.1677C25.0752 11.7864 25.38 11.4308 26.04 11.4308H28.6571C29.445 11.4308 29.6223 11.8373 29.445 12.396C29.1145 13.9204 25.9135 18.4427 25.9135 18.4427C25.6339 18.9002 25.5322 19.1032 25.9135 19.6115C26.1927 19.9928 27.1075 20.7802 27.7175 21.4916C28.8349 22.7616 29.6989 23.829 29.9276 24.5656C30.182 25.3039 29.8011 25.6853 29.0641 25.6853Z" fill="#E5E5E5"/>
</svg>
